<?xml version="1.0" encoding="utf-8"?>

<!DOCTYPE svg PUBLIC "-//W3C//DTD SVG 1.1//EN" "http://www.w3.org/Graphics/SVG/1.1/DTD/svg11.dtd">
<!-- Uploaded to: SVG Repo, www.svgrepo.com, Generator: SVG Repo Mixer Tools -->
<svg height="800px" width="800px" version="1.1" id="_x32_" xmlns="http://www.w3.org/2000/svg" xmlns:xlink="http://www.w3.org/1999/xlink" 
	 viewBox="0 0 512 512"  xml:space="preserve">
<style type="text/css">
	.st0{fill:#000000;}
</style>
<g>
	<path class="st0" d="M256,0C114.838,0,0,114.838,0,256c0,141.162,114.838,256,256,256c141.162,0,256-114.838,256-256
		C512,114.838,397.162,0,256,0z M256,466.052c-115.998,0-210.052-94.054-210.052-210.052S140.001,45.948,256,45.948
		S466.052,140.002,466.052,256S371.998,466.052,256,466.052z"/>
	<path class="st0" d="M269.989,190.757c-0.755-0.441-1.716-0.47-2.5-0.021c-0.762,0.435-1.239,1.275-1.239,2.158v47.821
		l-83.676-49.958c-0.756-0.441-1.717-0.47-2.5-0.021c-0.748,0.435-1.233,1.275-1.233,2.158v63.113v63.085
		c0,0.912,0.484,1.738,1.233,2.158c0.783,0.463,1.744,0.435,2.5-0.006l83.676-49.958v47.806c0,0.912,0.477,1.738,1.239,2.158
		c0.784,0.463,1.745,0.435,2.5-0.006l105.72-63.12c0.762-0.442,1.211-1.24,1.211-2.116s-0.448-1.702-1.211-2.13L269.989,190.757z"/>
</g>
</svg>